<?xml version="1.0" standalone="no"?><!DOCTYPE svg PUBLIC "-//W3C//DTD SVG 1.1//EN" "http://www.w3.org/Graphics/SVG/1.1/DTD/svg11.dtd"><svg t="1592474458218" class="icon" viewBox="0 0 1024 1024" version="1.1" xmlns="http://www.w3.org/2000/svg" p-id="1324" xmlns:xlink="http://www.w3.org/1999/xlink" width="200" height="200"><defs><style type="text/css"></style></defs><path d="M709.263794 493.87723c36.24554 0 65.631049 29.385509 65.63105 65.631049 0 36.24554-29.385509 65.631049-65.63105 65.631049-36.24554 0-65.631049-29.385509-65.631049-65.631049 0-36.24554 29.385509-65.631049 65.631049-65.631049zM392.780841 625.139328c29.795063 0 54.061145 24.163694 54.061145 54.061146s-24.163694 54.061145-54.061145 54.061145c-29.897451 0-54.061145-24.163694-54.061146-54.061145 0-29.897451 24.163694-54.061145 54.061146-54.061146zM417.866031 296.984082c24.470859 0 44.334235 19.863375 44.334235 44.436623 0 24.470859-19.863375 44.334235-44.334235 44.334234-24.573248 0-44.436623-19.863375-44.436623-44.334234 0-24.573248 19.863375-44.436623 44.436623-44.436623z" fill="#B27214" p-id="1325"></path><path d="M512.268258 83.401603c236.722287 0 428.598397 191.87611 428.598397 428.598397s-191.87611 428.598397-428.598397 428.598397-428.598397-191.87611-428.598397-428.598397 191.87611-428.598397 428.598397-428.598397z m262.626586 476.106676c0-36.24554-29.385509-65.631049-65.63105-65.631049-36.24554 0-65.631049 29.385509-65.631049 65.631049 0 36.24554 29.385509 65.631049 65.631049 65.631049s65.631049-29.385509 65.63105-65.631049z m-312.694578-218.087574c0-24.573248-19.863375-44.436623-44.334235-44.436623-24.573248 0-44.436623 19.863375-44.436623 44.436623 0 24.470859 19.863375 44.334235 44.436623 44.334234 24.470859 0 44.334235-19.863375 44.334235-44.334234z m-15.460669 337.779769c0-29.795063-24.163694-54.061145-54.061145-54.061146-29.897451 0-54.061145 24.163694-54.061145 54.061146s24.163694 54.061145 54.061145 54.061145c29.897451-0.102389 54.061145-24.266082 54.061145-54.061145z" fill="#F7B239" p-id="1326"></path><path d="M291.825748 512c0-200.783912 138.12213-369.315437 324.571647-415.79983-33.276273-8.293471-68.190763-12.696178-104.026749-12.696178-236.722287 0-428.598397 191.87611-428.598396 428.598397s191.87611 428.598397 428.598396 428.598397c35.835986 0 70.750476-4.402707 104.026749-12.696179-186.449518-46.689171-324.571648-215.220695-324.571647-416.004607z" fill="#E09B2D" p-id="1327"></path><path d="M855.269842 675.104932c-2.354936 0-4.812261-0.511943-7.167197-1.433439-9.317356-3.993153-13.720063-14.743949-9.726911-24.061305 18.429936-43.617515 27.849681-89.897132 27.849681-137.610188 0-130.033436-71.262419-249.418465-186.039964-311.465916-8.907802-4.812261-12.184235-15.972611-7.371974-24.880413s15.972611-12.184235 24.880413-7.371975c126.552226 68.497928 205.186619 200.169581 205.186619 343.718304 0 52.627706-10.341242 103.719583-30.716559 151.944582-2.969267 6.96242-9.829299 11.16035-16.894108 11.16035z" fill="#FFFFFF" p-id="1328"></path><path d="M614.247236 154.459245m-18.327547 0a18.327547 18.327547 0 1 0 36.655095 0 18.327547 18.327547 0 1 0-36.655095 0Z" fill="#FFFFFF" p-id="1329"></path><path d="M512.268258 65.074056c-246.449198 0-446.925944 200.476747-446.925944 446.925944s200.476747 446.925944 446.925944 446.925944 446.925944-200.476747 446.925944-446.925944-200.476747-446.925944-446.925944-446.925944z m0 857.196794c-226.176268 0-410.168461-184.094581-410.168461-410.27085s183.992193-410.168461 410.168461-410.168461 410.27085 183.992193 410.27085 410.168461-184.094581 410.27085-410.27085 410.27085z" fill="#333333" p-id="1330"></path><path d="M417.866031 278.656534c-34.607324 0-62.76417 28.156846-62.76417 62.764171s28.156846 62.76417 62.76417 62.76417 62.76417-28.156846 62.76417-62.76417-28.259235-62.76417-62.76417-62.764171z m0 88.770858c-14.334395 0-26.006687-11.672293-26.006687-26.006687s11.672293-26.006687 26.006687-26.006687 26.006687 11.672293 26.006687 26.006687-11.672293 26.006687-26.006687 26.006687zM709.263794 475.549682c-46.279617 0-83.958597 37.67898-83.958596 83.958597s37.67898 83.958597 83.958596 83.958597 83.958597-37.67898 83.958597-83.958597-37.67898-83.958597-83.958597-83.958597z m0 131.262099c-26.109076 0-47.303502-21.194426-47.303502-47.303502 0-26.109076 21.194426-47.303502 47.303502-47.303502s47.303502 21.194426 47.303502 47.303502c0 26.109076-21.296815 47.303502-47.303502 47.303502zM392.678452 606.811781c-39.931528 0-72.388692 32.457165-72.388692 72.388693s32.457165 72.388692 72.388692 72.388692 72.388692-32.457165 72.388692-72.388692-32.457165-72.388692-72.388692-72.388693z m0 108.019902c-19.658598 0-35.631209-15.972611-35.631209-35.631209s15.972611-35.631209 35.631209-35.63121c19.658598 0 35.631209 15.972611 35.631209 35.63121s-15.870223 35.631209-35.631209 35.631209z" fill="#333333" p-id="1331"></path><path d="M693.803126 316.335514m-18.327547 0a18.327547 18.327547 0 1 0 36.655094 0 18.327547 18.327547 0 1 0-36.655094 0Z" fill="#333333" p-id="1332"></path><path d="M284.65855 474.628186m-18.327547 0a18.327547 18.327547 0 1 0 36.655095 0 18.327547 18.327547 0 1 0-36.655095 0Z" fill="#333333" p-id="1333"></path><path d="M570.322556 725.48009m-18.327547 0a18.327547 18.327547 0 1 0 36.655094 0 18.327547 18.327547 0 1 0-36.655094 0Z" fill="#333333" p-id="1334"></path></svg>